<svg width="87" height="87" viewBox="0 0 87 87" fill="none" xmlns="http://www.w3.org/2000/svg">
<g id="Frame" clip-path="url(#clip0_9_64)">
<g id="Group">
<path id="Vector" d="M35.5863 79.7469C36.1382 81.1752 36.6055 82.4437 37.1308 83.6857C37.2155 83.8842 37.5665 84.0827 37.7965 84.0851C41.6021 84.1093 45.41 84.1117 49.2156 84.0827C49.4601 84.0803 49.7942 83.8358 49.9273 83.6106C50.4648 82.7028 51.1111 82.4026 51.9294 82.7706C52.7355 83.1337 52.9703 83.8358 52.6072 84.8332C52.4619 85.2302 52.3094 85.6224 52.1424 86.0097C51.8664 86.6513 51.3992 86.9999 50.6705 86.9999C45.8966 86.9926 41.1252 86.9926 36.3513 86.9999C35.5403 87.0023 35.0755 86.5908 34.7995 85.8669C34.1144 84.0658 33.4027 82.2719 32.7249 80.4683C32.553 80.0107 32.3908 79.7227 31.7928 79.7154C30.9552 79.7033 30.4662 79.1562 30.459 78.304C30.4396 75.8879 30.4372 73.4719 30.459 71.0558C30.4662 70.0633 31.0133 69.6081 32.1245 69.6081C35.9906 69.6033 39.8591 69.6057 43.7251 69.6057C46.986 69.6057 50.2469 69.6057 53.653 69.6057C53.653 68.3226 53.7087 67.0662 53.636 65.817C53.5731 64.7663 54.0113 64.1659 54.8973 63.6479C61.4941 59.7962 65.4037 54.0538 66.481 46.5127C68.2458 34.1734 59.555 22.5845 47.1918 20.626C34.2282 18.5706 22.2693 27.4626 20.5021 40.4677C19.2481 49.6986 23.8525 58.961 32.0131 63.6285C32.1439 63.7035 32.2794 63.7713 32.4102 63.8464C33.4027 64.4177 33.6859 65.1754 33.2187 65.9937C32.7491 66.812 31.9768 66.9669 30.9504 66.3762C23.2182 61.9242 18.6041 55.3054 17.5946 46.4231C16.1131 33.3841 24.218 21.6718 36.9008 18.2269C51.5178 14.2566 66.9894 24.192 69.2093 39.1798C70.8821 50.4757 66.6843 59.3072 57.2358 65.6572C56.7178 66.0058 56.5289 66.3423 56.5338 66.9524C56.5604 70.5765 56.5483 74.2006 56.5459 77.8271C56.5459 79.3063 56.0956 79.7469 54.5899 79.7469C48.6394 79.7493 42.6866 79.7469 36.7362 79.7469C36.407 79.7469 36.0777 79.7469 35.5863 79.7469ZM53.5997 76.8006C53.5997 75.3602 53.5997 73.9633 53.5997 72.5568C46.8335 72.5568 40.1205 72.5568 33.4196 72.5568C33.4196 74.0117 33.4196 75.4086 33.4196 76.8006C40.1786 76.8006 46.8674 76.8006 53.5997 76.8006Z" fill="white"/>
<path id="Vector_2" d="M31.8025 34.7956C31.2409 35.7664 30.7035 36.7009 30.1176 37.7153C30.9915 38.4924 31.8146 39.2816 32.6982 39.9933C33.3857 40.5477 33.5843 41.1989 33.5213 42.0584C33.4463 43.0727 33.4656 44.0992 33.5237 45.116C33.5649 45.8398 33.3954 46.4015 32.8314 46.876C31.9332 47.6337 31.0666 48.4302 30.1152 49.2751C30.6744 50.2507 31.2239 51.2069 31.7977 52.2092C32.9476 51.8267 34.0636 51.4781 35.1626 51.0811C35.9155 50.8099 36.5304 50.931 37.1913 51.3934C37.9999 51.9598 38.8641 52.4779 39.7671 52.875C40.578 53.2332 41.0041 53.7562 41.1397 54.6107C41.2874 55.5622 41.4689 56.5136 41.711 57.4432C41.7691 57.6683 42.1177 57.8184 42.3356 58C42.3525 58.0145 42.3937 58.0024 42.4251 58.0024C43.3257 57.9758 44.4635 58.2687 45.0542 57.8281C45.5843 57.4335 45.5916 56.24 45.6957 55.383C45.8627 53.9982 46.434 53.0565 47.8478 52.6014C48.5692 52.369 49.2132 51.8412 49.8353 51.3691C50.4526 50.9019 51.0627 50.8002 51.7793 51.0544C52.8856 51.4442 54.004 51.8001 55.1878 52.1947C55.672 51.3619 56.1852 50.5485 56.6112 49.6939C56.7081 49.4978 56.6016 49.062 56.4321 48.895C55.7228 48.1978 54.9699 47.5417 54.2025 46.905C53.6409 46.4378 53.4351 45.8882 53.4714 45.1595C53.5247 44.0508 53.5198 42.9347 53.4738 41.8259C53.4448 41.1384 53.6118 40.5961 54.1493 40.1458C54.9118 39.5043 55.6235 38.7998 56.3982 38.1752C56.8267 37.8315 56.8291 37.5458 56.5531 37.1124C56.0859 36.3765 55.6671 35.6091 55.1975 34.8005C54.0694 35.1733 52.9534 35.5195 51.8567 35.9165C51.1063 36.1877 50.489 36.0763 49.8256 35.6163C48.9905 35.0353 48.0947 34.5148 47.17 34.0912C46.4292 33.7522 46.0273 33.2608 45.8845 32.4861C45.7175 31.5686 45.4633 30.6607 45.3568 29.736C45.2817 29.0799 44.9719 28.971 44.4054 28.9855C43.1683 29.0169 41.9289 29.0073 40.6894 28.9903C39.692 28.9782 39.1328 28.4166 39.157 27.499C39.1788 26.6299 39.7283 26.1143 40.6967 26.107C42.5704 26.0949 44.4417 26.107 46.3154 26.1022C47.17 26.0998 47.6711 26.5307 47.8454 27.3465C48.0972 28.5255 48.2981 29.7142 48.591 30.8835C48.6733 31.2079 49.0026 31.4717 49.2253 31.7598C49.2592 31.8034 49.3391 31.8082 49.3802 31.847C50.7794 33.1422 52.2271 32.7936 53.8297 32.1811C56.5096 31.1522 56.541 31.2297 57.9718 33.7232C58.6181 34.8489 59.2717 35.9674 59.906 37.1003C60.4071 37.9961 60.3127 38.5916 59.5743 39.2792C59.1555 39.6713 58.7537 40.0998 58.2744 40.4049C56.8654 41.2982 56.2868 42.4965 56.5096 44.1791C56.5895 44.7891 56.6839 45.237 57.1801 45.6316C58.0299 46.3095 58.8239 47.0551 59.6397 47.7741C60.3079 48.3624 60.3829 49.0644 59.9617 49.8125C59.0563 51.4151 58.1339 53.0081 57.2019 54.5938C56.742 55.3757 56.0811 55.642 55.1999 55.3031C54.723 55.1191 54.2291 54.9811 53.7426 54.8165C51.2539 53.9692 51.2491 53.9571 49.0728 55.3104C48.8355 55.4581 48.6491 55.8042 48.5813 56.0899C48.3102 57.2326 48.1117 58.3922 47.8575 59.5397C47.6324 60.5565 47.2039 60.8906 46.1508 60.8954C44.3691 60.9027 42.5849 60.8881 40.8032 60.9002C39.8833 60.9075 39.3241 60.5056 39.1425 59.5881C38.9198 58.4648 38.7261 57.3343 38.4235 56.2327C38.3121 55.8333 37.9224 55.5089 37.6488 55.1579C37.598 55.0949 37.4745 55.0925 37.4116 55.032C36.1745 53.8724 34.8479 54.0612 33.4632 54.7318C32.979 54.9666 32.444 55.1022 31.9284 55.2692C30.7882 55.6396 30.3089 55.4581 29.6891 54.3953C28.837 52.9379 27.9921 51.4757 27.1521 50.0086C26.5638 48.9821 26.6558 48.4108 27.5346 47.6264C28.3456 46.9026 29.2001 46.2223 29.9724 45.4621C30.2314 45.2079 30.3766 44.777 30.4493 44.4018C30.8003 42.5861 30.0571 41.3369 28.5828 40.2306C26.3508 38.5577 26.2588 38.4004 27.8299 35.8052C28.486 34.7206 29.0936 33.6094 29.7375 32.5176C30.3016 31.5637 30.7954 31.3773 31.8485 31.7187C32.9379 32.0721 34.0079 32.4837 35.1094 32.7887C35.4531 32.8831 35.9034 32.7911 36.2472 32.6459C36.7701 32.4232 37.2203 32.0358 37.7384 31.801C38.4937 31.4596 39.2321 31.7308 39.6049 32.4111C40.0164 33.1567 39.8349 33.8733 39.0892 34.372C38.3654 34.8586 37.6706 35.4178 36.8863 35.781C36.4191 35.9988 35.7727 36.04 35.2667 35.9165C34.1047 35.6284 32.9815 35.1903 31.8025 34.7956Z" fill="white"/>
<path id="Vector_3" d="M43.5242 49.2993C40.2924 49.3065 37.7069 46.7452 37.7021 43.5303C37.6973 40.2984 40.2585 37.7128 43.4685 37.7056C46.6955 37.7007 49.2906 40.2693 49.2955 43.4746C49.3027 46.6992 46.7318 49.292 43.5242 49.2993ZM43.5339 46.4039C45.0905 46.3772 46.405 45.0336 46.3929 43.4843C46.3808 41.9228 45.059 40.6082 43.4976 40.6034C41.9022 40.601 40.5538 41.9785 40.5974 43.5642C40.641 45.1329 41.9821 46.4305 43.5339 46.4039Z" fill="white"/>
<path id="Vector_4" d="M65.9799 7.26268C65.9194 7.41762 65.8322 7.73718 65.6724 8.018C64.2926 10.4244 62.9054 12.8259 61.511 15.2226C60.9591 16.1692 60.2183 16.4306 59.4243 15.9925C58.5891 15.5325 58.4245 14.7433 58.9909 13.7531C60.3853 11.3225 61.7967 8.89921 63.1935 6.46862C63.5881 5.78109 64.1788 5.47121 64.9365 5.67699C65.6143 5.85856 65.9775 6.3621 65.9799 7.26268Z" fill="white"/>
<path id="Vector_5" d="M81.5144 64.258C81.495 65.6451 80.3693 66.4223 79.4131 65.8921C76.7816 64.4323 74.1817 62.9168 71.5914 61.3868C70.853 60.951 70.6932 60.1206 71.0951 59.421C71.497 58.7238 72.3467 58.4938 73.1431 58.9344C74.6441 59.7672 76.1232 60.6339 77.6071 61.4909C78.6239 62.0767 79.6624 62.6311 80.638 63.2799C81.0496 63.5535 81.3231 64.0352 81.5144 64.258Z" fill="white"/>
<path id="Vector_6" d="M16.1131 60.479C15.9678 60.6654 15.7451 61.1738 15.3578 61.4062C12.8256 62.9169 10.2668 64.3839 7.69584 65.8268C6.92117 66.2601 6.17314 66.0035 5.75917 65.2821C5.35247 64.5776 5.51467 63.7618 6.25302 63.326C8.7949 61.8299 11.3416 60.3434 13.9198 58.9127C14.9777 58.3268 16.1082 59.024 16.1131 60.479Z" fill="white"/>
<path id="Vector_7" d="M16.101 26.4798C16.1179 27.8646 14.9874 28.661 14.0191 28.1285C11.3803 26.6735 8.77795 25.1556 6.18765 23.6183C5.52192 23.2237 5.41057 22.3401 5.81 21.6913C6.23365 21.0013 7.06642 20.7955 7.87498 21.2482C9.47999 22.144 11.0656 23.0736 12.6585 23.9911C13.5204 24.4874 14.4112 24.9425 15.2271 25.5042C15.6362 25.7874 15.9122 26.2619 16.101 26.4798Z" fill="white"/>
<path id="Vector_8" d="M72.5379 28.2834C71.6519 28.2907 71.2161 27.8767 70.9837 27.2255C70.732 26.521 71.0055 25.9618 71.6035 25.601C72.918 24.807 74.2567 24.0517 75.5858 23.2818C76.7332 22.6185 77.8759 21.9455 79.033 21.2991C79.9505 20.7883 80.7978 20.982 81.2215 21.7591C81.6354 22.5217 81.3982 23.2988 80.5194 23.812C78.101 25.2258 75.6729 26.6202 73.24 28.0098C72.9858 28.1575 72.688 28.2277 72.5379 28.2834Z" fill="white"/>
<path id="Vector_9" d="M22.8212 5.63333C22.9955 5.77374 23.4918 6.00373 23.7242 6.39107C25.2082 8.86766 26.6486 11.3709 28.0696 13.8838C28.5247 14.6899 28.2681 15.4791 27.5201 15.8955C26.7866 16.3047 26.0434 16.1449 25.581 15.3605C24.0994 12.8476 22.63 10.3275 21.2138 7.77825C20.6352 6.73484 21.359 5.60186 22.8212 5.63333Z" fill="white"/>
<path id="Vector_10" d="M42.0523 5.80043C42.0523 4.41083 42.0451 3.02365 42.0548 1.63406C42.062 0.602752 42.5728 0.0193139 43.4564 -0.0024742C44.3836 -0.0242623 44.9404 0.57128 44.9452 1.63648C44.9549 4.41325 44.9525 7.19003 44.9452 9.9668C44.9428 11.0078 44.4393 11.5719 43.546 11.5937C42.6019 11.6154 42.0644 11.0393 42.0572 9.96196C42.0451 8.57721 42.0523 7.19003 42.0523 5.80043Z" fill="white"/>
<path id="Vector_11" d="M5.7979 42.0559C7.21651 42.0559 8.63754 42.0462 10.0562 42.0583C11.0269 42.068 11.5716 42.5764 11.591 43.4528C11.6127 44.3703 11.056 44.9392 10.0562 44.9441C7.21651 44.9586 4.37687 44.9586 1.53965 44.9441C0.542266 44.9392 -0.0217892 44.3679 -1.65752e-06 43.4552C0.0217859 42.5885 0.576157 42.0704 1.53723 42.0608C2.95826 42.0462 4.37687 42.0559 5.7979 42.0559Z" fill="white"/>
<path id="Vector_12" d="M81.1803 42.0559C82.5989 42.0559 84.0199 42.0462 85.4386 42.0583C86.4505 42.0656 87.0097 42.603 87 43.5181C86.9903 44.3945 86.4432 44.9368 85.487 44.9416C82.6183 44.9562 79.7472 44.9562 76.8785 44.9392C75.9416 44.9344 75.3969 44.3558 75.4066 43.477C75.4163 42.5982 75.961 42.0704 76.9196 42.0583C78.3407 42.0462 79.7593 42.0559 81.1803 42.0559Z" fill="white"/>
</g>
</g>
<defs>
<clipPath id="clip0_9_64">
<rect width="87" height="87" fill="white"/>
</clipPath>
</defs>
</svg>
