<?xml version="1.0" encoding="utf-8"?>
<!-- Generator: Adobe Illustrator 24.1.3, SVG Export Plug-In . SVG Version: 6.00 Build 0)  -->
<svg version="1.1" id="Layer_1" xmlns="http://www.w3.org/2000/svg" xmlns:xlink="http://www.w3.org/1999/xlink" x="0px" y="0px"
	 viewBox="0 0 790.73 380.31" style="enable-background:new 0 0 790.73 380.31;" xml:space="preserve">
<style type="text/css">
	.st0{fill:#752B8C;}
	.st1{fill:#F37021;}
	.st2{fill:none;}
	.st3{fill:#F36F24;}
</style>
<g>
	<g>
		<path class="st0" d="M367.07,213.87c0,7.81-3.65,14.6-13.54,14.6s-13.54-6.8-13.54-14.6v-22.21h4.26v21.6
			c0,5.78,2.13,11.26,9.28,11.26s9.28-5.48,9.28-11.26v-21.6h4.26V213.87z"/>
		<path class="st0" d="M375.17,191.66h13.79c7.05,0,17.6,4.72,17.6,17.95c0,13.24-10.55,17.95-17.6,17.95h-13.79V191.66z
			 M379.43,223.61h8.11c8.22,0,14.45-4.16,14.45-14c0-9.84-6.24-14-14.45-14h-8.11V223.61z"/>
		<path class="st0" d="M440.31,213.87c0,7.81-3.65,14.6-13.54,14.6s-13.54-6.8-13.54-14.6v-22.21h4.26v21.6
			c0,5.78,2.13,11.26,9.28,11.26s9.28-5.48,9.28-11.26v-21.6h4.26V213.87z"/>
		<path class="st0" d="M479.59,225.13c-4.11,2.28-8.77,3.34-13.44,3.34c-11.16,0-19.17-7.6-19.17-18.86
			c0-11.31,8.57-18.86,19.32-18.86c4.72,0,9.28,1.27,12.68,4.72l-3.19,3.35c-2.43-2.64-6.14-4.11-9.79-4.11
			c-8.21,0-14.45,6.19-14.45,14.91c0,8.57,6.03,14.91,14.86,14.91c2.89,0,6.29-0.76,8.93-2.08v-11h-8.27v-3.96h12.52V225.13z"/>
		<path class="st0" d="M515.42,213.87c0,7.81-3.65,14.6-13.54,14.6s-13.54-6.8-13.54-14.6v-22.21h4.26v21.6
			c0,5.78,2.13,11.26,9.28,11.26s9.28-5.48,9.28-11.26v-21.6h4.26V213.87z"/>
		<path class="st0" d="M367.07,264.55c0,7.81-3.65,14.6-13.54,14.6s-13.54-6.8-13.54-14.6v-22.21h4.26v21.6
			c0,5.78,2.13,11.26,9.28,11.26s9.28-5.48,9.28-11.26v-21.6h4.26V264.55z"/>
		<path class="st0" d="M375.83,242.34h22.26v3.95h-18v11.87h16.73v3.96h-16.73v16.13h-4.26V242.34z"/>
		<path class="st0" d="M412.88,242.34h4.01l15.26,35.9h-4.97l-3.65-8.82h-17.95l-3.7,8.82h-4.82L412.88,242.34z M414.81,247.82h-0.1
			l-7.45,17.65h14.66L414.81,247.82z"/>
		<path class="st0" d="M436.9,242.34h5.37l20.79,29.82h0.1v-29.82h4.26v35.9h-5.38l-20.79-29.82h-0.1v29.82h-4.26V242.34z"/>
		<path class="st0" d="M476.33,242.34h4.26v35.9h-4.26V242.34z"/>
		<path class="st0" d="M506.55,248.68c-1.42-2.28-3.95-3.3-6.54-3.3c-3.75,0-7.66,1.77-7.66,6.03c0,3.29,1.83,4.77,7.56,6.59
			c5.58,1.77,10.75,3.6,10.75,10.65c0,7.15-6.14,10.5-12.63,10.5c-4.16,0-8.62-1.37-11.06-4.97l3.65-2.99
			c1.52,2.64,4.56,4.01,7.66,4.01c3.65,0,7.81-2.13,7.81-6.24c0-4.41-2.99-5.17-9.38-7.3c-5.07-1.68-8.93-3.91-8.93-9.89
			c0-6.9,5.93-10.35,12.22-10.35c4.01,0,7.4,1.12,10.04,4.21L506.55,248.68z"/>
		<path class="st0" d="M517.69,242.34h4.26v35.9h-4.26V242.34z"/>
		<path class="st0" d="M367.07,315.24c0,7.81-3.65,14.6-13.54,14.6s-13.54-6.8-13.54-14.6v-22.21h4.26v21.6
			c0,5.78,2.13,11.26,9.28,11.26s9.28-5.48,9.28-11.26v-21.6h4.26V315.24z"/>
		<path class="st0" d="M392.86,299.37c-1.42-2.28-3.95-3.3-6.54-3.3c-3.75,0-7.66,1.77-7.66,6.03c0,3.3,1.83,4.77,7.56,6.59
			c5.58,1.77,10.75,3.6,10.75,10.65c0,7.15-6.14,10.5-12.63,10.5c-4.16,0-8.62-1.37-11.06-4.97l3.65-2.99
			c1.52,2.64,4.56,4.01,7.66,4.01c3.65,0,7.81-2.13,7.81-6.24c0-4.41-2.99-5.17-9.38-7.3c-5.07-1.68-8.93-3.91-8.93-9.89
			c0-6.9,5.93-10.35,12.22-10.35c4.01,0,7.4,1.12,10.04,4.21L392.86,299.37z"/>
		<path class="st0" d="M428.09,296.98h-11.87v31.95h-4.26v-31.95H400.1v-3.95h27.99V296.98z"/>
		<path class="st0" d="M440.1,293.03h4.01l15.26,35.9h-4.97l-3.65-8.82H432.8l-3.7,8.82h-4.82L440.1,293.03z M442.03,298.5h-0.1
			l-7.45,17.65h14.66L442.03,298.5z"/>
		<path class="st0" d="M458.74,293.03h4.72l8.17,29.82h0.1l8.82-29.82h4.77l8.77,29.82h0.1l8.32-29.82h4.46l-10.55,35.9h-4.62
			l-8.87-30.43h-0.1l-8.93,30.43h-4.67L458.74,293.03z"/>
		<path class="st0" d="M511.71,293.03h4.26v35.9h-4.26V293.03z"/>
		<path class="st0" d="M534.82,293.03h4.72l8.17,29.82h0.1l8.82-29.82h4.77l8.77,29.82h0.1l8.32-29.82h4.46l-10.55,35.9h-4.62
			l-8.87-30.43h-0.1l-8.93,30.43h-4.67L534.82,293.03z"/>
		<path class="st0" d="M598.23,293.03h4.01l15.26,35.9h-4.97l-3.65-8.82h-17.95l-3.7,8.82h-4.82L598.23,293.03z M600.16,298.5h-0.1
			l-7.45,17.65h14.66L600.16,298.5z"/>
		<path class="st0" d="M651.86,319.65c0,4.82-2.59,10.19-10.24,10.19c-5.07,0-8.67-2.58-9.58-7.71l4.26-0.86
			c0.56,2.84,2.38,4.61,5.38,4.61c4.87,0,5.93-3.8,5.93-7.71v-25.15h4.26V319.65z"/>
		<path class="st0" d="M672.43,293.03h4.01l15.26,35.9h-4.97l-3.65-8.82h-17.95l-3.7,8.82h-4.82L672.43,293.03z M674.36,298.5h-0.1
			l-7.45,17.65h14.66L674.36,298.5z"/>
		<path class="st0" d="M696.45,293.03h6.34l12.17,28.14h0.1l12.27-28.14h6.19v35.9h-4.26v-30.12h-0.1l-12.88,30.12h-2.59
			l-12.88-30.12h-0.1v30.12h-4.26V293.03z"/>
		<path class="st0" d="M742.42,293.03h4.26v35.9h-4.26V293.03z"/>
		<path class="st0" d="M755.6,293.03h4.26v35.9h-4.26V293.03z"/>
	</g>
	<polygon class="st1" points="279.51,60.81 314.75,25.46 279.51,25.46 	"/>
	<path class="st2" d="M208.52,132.51l43.03-43.36l-43.16,43.29C208.43,132.47,208.47,132.49,208.52,132.51z"/>
	<path class="st0" d="M278.61,81.3l-0.07,128.95l0.04,1.66c0.01,0.43,0.03,0.86,0.03,1.29c0,58.44-47.55,105.99-105.98,105.99
		c-39.77,0-75.32-21.71-93.58-56.22l-26.01,26.21c25.62,40.58,70.17,65.66,119.59,65.66c78.1,0,141.64-63.54,141.64-141.64
		c0-0.83-0.02-1.66-0.05-2.49l-0.02-0.71l0.07-128.69L278.61,81.3z"/>
	<path class="st1" d="M74.03,252.06c-2.48-6.29-4.36-12.83-5.59-19.44c-1.74-9.35-1.78-16.72-1.79-19.5c0-0.62-0.27-63.05,0-160.75
		l-35.65-0.1c-0.27,97.82,0,160.39,0,161.01c0.02,3.65,0.06,13.36,2.39,25.87c1.64,8.83,4.16,17.58,7.48,25.99
		c3.35,8.5,7.44,16.54,12.18,24.04l26.01-26.21C77.19,259.46,75.51,255.82,74.03,252.06z"/>
	<path class="st3" d="M122.62,210.89l-35.65,0.43c0.15,12.63,3.1,24.62,8.22,35.39l28.09-28.31
		C122.88,215.95,122.65,213.44,122.62,210.89z"/>
	<path class="st1" d="M208.38,132.45l43.16-43.29l7.96-8.03v-28.8H100.75v35.65h101.62l-71.65,71.87l42.39,0.39
		c2.48,0.02,4.91,0.23,7.29,0.61l28.12-28.34C208.47,132.49,208.43,132.47,208.38,132.45z"/>
	<path class="st0" d="M172.63,295.95c47.25,0,85.69-38.44,85.69-85.68c0-34.3-20.45-64.1-49.8-77.75l-28.12,28.34
		c23.88,3.76,42.27,24.56,42.27,49.41c0,27.59-22.44,50.03-50.03,50.03c-24.69,0-45.43-18.2-49.35-41.89l-28.09,28.31
		C108.97,275.74,138.6,295.95,172.63,295.95z"/>
	<polygon class="st3" points="259.51,81.17 259.51,81.13 251.54,89.16 	"/>
</g>
</svg>
