<?xml version="1.0" encoding="utf-8"?>
<!-- Generator: Adobe Illustrator 24.1.3, SVG Export Plug-In . SVG Version: 6.00 Build 0)  -->
<svg version="1.1" id="Layer_1" xmlns="http://www.w3.org/2000/svg" xmlns:xlink="http://www.w3.org/1999/xlink" x="0px" y="0px"
	 viewBox="0 0 790.7 380.3" style="enable-background:new 0 0 790.7 380.3;" xml:space="preserve">
<style type="text/css">
	.st0{fill:#FFFFFF;}
	.st1{fill:#F6F6F6;}
</style>
<g>
	<g>
		<path class="st0" d="M367.1,213.9c0,7.8-3.6,14.6-13.5,14.6s-13.5-6.8-13.5-14.6v-22.2h4.3v21.6c0,5.8,2.1,11.3,9.3,11.3
			s9.3-5.5,9.3-11.3v-21.6h4.3V213.9z"/>
		<path class="st0" d="M375.2,191.7H389c7,0,17.6,4.7,17.6,17.9c0,13.2-10.5,17.9-17.6,17.9h-13.8V191.7z M379.4,223.6h8.1
			c8.2,0,14.5-4.2,14.5-14s-6.2-14-14.5-14h-8.1V223.6z"/>
		<path class="st0" d="M440.3,213.9c0,7.8-3.6,14.6-13.5,14.6s-13.5-6.8-13.5-14.6v-22.2h4.3v21.6c0,5.8,2.1,11.3,9.3,11.3
			s9.3-5.5,9.3-11.3v-21.6h4.3V213.9z"/>
		<path class="st0" d="M479.6,225.1c-4.1,2.3-8.8,3.3-13.4,3.3c-11.2,0-19.2-7.6-19.2-18.9c0-11.3,8.6-18.9,19.3-18.9
			c4.7,0,9.3,1.3,12.7,4.7l-3.2,3.4c-2.4-2.6-6.1-4.1-9.8-4.1c-8.2,0-14.5,6.2-14.5,14.9c0,8.6,6,14.9,14.9,14.9
			c2.9,0,6.3-0.8,8.9-2.1v-11h-8.3v-4h12.5L479.6,225.1L479.6,225.1z"/>
		<path class="st0" d="M515.4,213.9c0,7.8-3.6,14.6-13.5,14.6s-13.5-6.8-13.5-14.6v-22.2h4.3v21.6c0,5.8,2.1,11.3,9.3,11.3
			s9.3-5.5,9.3-11.3v-21.6h4.3V213.9z"/>
		<path class="st0" d="M367.1,264.5c0,7.8-3.6,14.6-13.5,14.6s-13.5-6.8-13.5-14.6v-22.2h4.3v21.6c0,5.8,2.1,11.3,9.3,11.3
			s9.3-5.5,9.3-11.3v-21.6h4.3V264.5z"/>
		<path class="st0" d="M375.8,242.3h22.3v3.9h-18v11.9h16.7v4h-16.7v16.1h-4.3V242.3z"/>
		<path class="st0" d="M412.9,242.3h4l15.3,35.9h-5l-3.6-8.8h-18l-3.7,8.8h-4.8L412.9,242.3z M414.8,247.8h-0.1l-7.5,17.6h14.7
			L414.8,247.8z"/>
		<path class="st0" d="M436.9,242.3h5.4l20.8,29.8h0.1v-29.8h4.3v35.9H462l-20.8-29.8h-0.1v29.8h-4.3L436.9,242.3L436.9,242.3z"/>
		<path class="st0" d="M476.3,242.3h4.3v35.9h-4.3V242.3z"/>
		<path class="st0" d="M506.5,248.7c-1.4-2.3-4-3.3-6.5-3.3c-3.8,0-7.7,1.8-7.7,6c0,3.3,1.8,4.8,7.6,6.6c5.6,1.8,10.8,3.6,10.8,10.6
			c0,7.1-6.1,10.5-12.6,10.5c-4.2,0-8.6-1.4-11.1-5l3.6-3c1.5,2.6,4.6,4,7.7,4c3.6,0,7.8-2.1,7.8-6.2c0-4.4-3-5.2-9.4-7.3
			c-5.1-1.7-8.9-3.9-8.9-9.9c0-6.9,5.9-10.4,12.2-10.4c4,0,7.4,1.1,10,4.2L506.5,248.7z"/>
		<path class="st0" d="M517.7,242.3h4.3v35.9h-4.3V242.3z"/>
		<path class="st0" d="M367.1,315.2c0,7.8-3.6,14.6-13.5,14.6S340,323,340,315.2V293h4.3v21.6c0,5.8,2.1,11.3,9.3,11.3
			s9.3-5.5,9.3-11.3V293h4.3V315.2z"/>
		<path class="st0" d="M392.9,299.4c-1.4-2.3-4-3.3-6.5-3.3c-3.8,0-7.7,1.8-7.7,6c0,3.3,1.8,4.8,7.6,6.6c5.6,1.8,10.8,3.6,10.8,10.6
			c0,7.1-6.1,10.5-12.6,10.5c-4.2,0-8.6-1.4-11.1-5l3.6-3c1.5,2.6,4.6,4,7.7,4c3.6,0,7.8-2.1,7.8-6.2c0-4.4-3-5.2-9.4-7.3
			c-5.1-1.7-8.9-3.9-8.9-9.9c0-6.9,5.9-10.4,12.2-10.4c4,0,7.4,1.1,10,4.2L392.9,299.4z"/>
		<path class="st0" d="M428.1,297h-11.9v32H412v-32h-11.9v-4h28V297z"/>
		<path class="st0" d="M440.1,293h4l15.3,35.9h-5l-3.6-8.8h-18l-3.7,8.8h-4.8L440.1,293z M442,298.5h-0.1l-7.5,17.6h14.7L442,298.5z
			"/>
		<path class="st0" d="M458.7,293h4.7l8.2,29.8h0.1l8.8-29.8h4.8l8.8,29.8h0.1l8.3-29.8h4.5l-10.5,35.9h-4.6l-8.9-30.4h-0.1
			l-8.9,30.4h-4.7L458.7,293z"/>
		<path class="st0" d="M511.7,293h4.3v35.9h-4.3L511.7,293L511.7,293z"/>
		<path class="st0" d="M534.8,293h4.7l8.2,29.8h0.1l8.8-29.8h4.8l8.8,29.8h0.1l8.3-29.8h4.5l-10.5,35.9h-4.6l-8.9-30.4h-0.1
			l-8.9,30.4h-4.7L534.8,293z"/>
		<path class="st0" d="M598.2,293h4l15.3,35.9h-5l-3.7-8.8h-18l-3.7,8.8h-4.8L598.2,293z M600.2,298.5L600.2,298.5l-7.5,17.6h14.7
			L600.2,298.5z"/>
		<path class="st0" d="M651.9,319.6c0,4.8-2.6,10.2-10.2,10.2c-5.1,0-8.7-2.6-9.6-7.7l4.3-0.9c0.6,2.8,2.4,4.6,5.4,4.6
			c4.9,0,5.9-3.8,5.9-7.7V293h4.3L651.9,319.6L651.9,319.6z"/>
		<path class="st0" d="M672.4,293h4l15.3,35.9h-5l-3.7-8.8h-18l-3.7,8.8h-4.8L672.4,293z M674.4,298.5L674.4,298.5l-7.5,17.6h14.7
			L674.4,298.5z"/>
		<path class="st0" d="M696.5,293h6.3l12.2,28.1h0.1l12.3-28.1h6.2v35.9h-4.3v-30.1h-0.1l-12.9,30.1h-2.6l-12.9-30.1h-0.1v30.1h-4.3
			V293z"/>
		<path class="st0" d="M742.4,293h4.3v35.9h-4.3V293z"/>
		<path class="st0" d="M755.6,293h4.3v35.9h-4.3V293z"/>
	</g>
	<polygon class="st1" points="279.5,60.8 314.8,25.5 279.5,25.5 	"/>
	<path class="st0" d="M208.5,132.5l43-43.4l-43.2,43.3C208.4,132.5,208.5,132.5,208.5,132.5z"/>
	<path class="st0" d="M278.6,81.3l-0.1,128.9l0,1.7c0,0.4,0,0.9,0,1.3c0,58.4-47.6,106-106,106c-39.8,0-75.3-21.7-93.6-56.2
		l-26,26.2c25.6,40.6,70.2,65.7,119.6,65.7c78.1,0,141.6-63.5,141.6-141.6c0-0.8,0-1.7,0-2.5l0-0.7l0.1-128.7L278.6,81.3z"/>
	<path class="st1" d="M74,252.1c-2.5-6.3-4.4-12.8-5.6-19.4c-1.7-9.4-1.8-16.7-1.8-19.5c0-0.6-0.3-63.1,0-160.8L31,52.3
		c-0.3,97.8,0,160.4,0,161c0,3.6,0.1,13.4,2.4,25.9c1.6,8.8,4.2,17.6,7.5,26c3.3,8.5,7.4,16.5,12.2,24l26-26.2
		C77.2,259.5,75.5,255.8,74,252.1z"/>
	<path class="st1" d="M122.6,210.9L87,211.3c0.2,12.6,3.1,24.6,8.2,35.4l28.1-28.3C122.9,215.9,122.7,213.4,122.6,210.9z"/>
	<path class="st1" d="M208.4,132.4l43.2-43.3l8-8V52.3H100.8V88h101.6l-71.6,71.9l42.4,0.4c2.5,0,4.9,0.2,7.3,0.6l28.1-28.3
		C208.5,132.5,208.4,132.5,208.4,132.4z"/>
	<path class="st0" d="M172.6,296c47.3,0,85.7-38.4,85.7-85.7c0-34.3-20.4-64.1-49.8-77.8l-28.1,28.3c23.9,3.8,42.3,24.6,42.3,49.4
		c0,27.6-22.4,50-50,50c-24.7,0-45.4-18.2-49.3-41.9l-28.1,28.3C109,275.7,138.6,296,172.6,296z"/>
	<polygon class="st0" points="259.5,81.2 259.5,81.1 251.5,89.2 	"/>
</g>
</svg>
