<svg width="74" height="66" viewBox="0 0 74 66" fill="none" xmlns="http://www.w3.org/2000/svg">
<g id="Frame" clip-path="url(#clip0_9_56)">
<g id="Group">
<path id="Vector" d="M52.6006 56.9393C53.73 58.9281 54.8072 60.77 55.8223 62.6437C56.0683 63.0963 56.2504 63.6679 56.2291 64.172C56.1884 65.091 55.5085 65.7341 54.6018 65.9048C54.3422 65.9544 54.0749 65.9644 53.8095 65.9644C42.6198 65.9663 31.4281 65.9663 20.2385 65.9663C20.0932 65.9663 19.9479 65.9723 19.8026 65.9624C18.1036 65.8532 17.2705 64.305 18.1152 62.7846C19.0587 61.0856 20.0312 59.4064 20.9901 57.7173C21.1102 57.507 21.2206 57.2906 21.4124 56.9373C21.0754 56.9373 20.8293 56.9373 20.5813 56.9373C15.5057 56.9373 10.43 56.8797 5.35437 56.9591C2.26442 57.0088 -0.0138135 54.4979 -0.000252585 51.4512C0.0694893 36.3446 0.0636775 21.2359 -0.000252585 6.12733C-0.00993896 3.4736 1.8421 0.655121 5.31757 0.657106C26.4416 0.674969 47.5656 0.66306 68.6877 0.669015C71.9114 0.669015 73.9978 2.8186 73.9978 6.10351C73.9978 21.2618 73.9997 36.42 73.9978 51.5782C73.9978 54.7698 71.8862 56.9373 68.771 56.9393C63.6954 56.9433 58.6197 56.9413 53.5441 56.9413C53.2787 56.9393 53.0152 56.9393 52.6006 56.9393ZM2.49108 48.0115C25.5505 48.0115 48.5207 48.0115 71.5375 48.0115C71.5375 47.6601 71.5375 47.3664 71.5375 47.0726C71.5375 33.5717 71.5375 20.0708 71.5375 6.57193C71.5375 4.09882 70.7258 3.25526 68.3429 3.25526C47.4572 3.25526 26.5733 3.25526 5.68758 3.25526C5.39699 3.25526 5.08122 3.18579 4.82356 3.27908C4.27144 3.47757 3.67476 3.66811 3.22918 4.03332C2.61313 4.53747 2.48721 5.32148 2.48914 6.12138C2.49496 19.8704 2.49302 33.6174 2.49302 47.3664C2.49108 47.5609 2.49108 47.7574 2.49108 48.0115ZM2.55114 50.689C2.27992 53.2693 3.25437 54.3947 5.68758 54.3947C26.6411 54.3947 47.5947 54.3947 68.5483 54.3947C70.7703 54.3947 71.8997 52.9577 71.4406 50.689C48.4936 50.689 25.5427 50.689 2.55114 50.689ZM20.6918 63.3325C31.6122 63.3325 42.4144 63.3325 53.2419 63.3325C53.2264 63.2193 53.2341 63.1379 53.2031 63.0824C52.1008 61.1372 51.0043 59.1861 49.8749 57.2588C49.7722 57.0842 49.4525 56.9552 49.2336 56.9552C41.0913 56.9393 32.947 56.9393 24.8046 56.9611C24.5605 56.9611 24.2234 57.1695 24.0898 57.3859C23.435 58.4517 22.8305 59.5533 22.2125 60.643C21.7205 61.5064 21.2303 62.3777 20.6918 63.3325Z" fill="white"/>
<path id="Vector_2" d="M58.5987 29.743C58.5987 34.5443 58.6006 39.3476 58.5987 44.149C58.5987 45.5046 58.1822 45.9333 56.8745 45.9353C54.9663 45.9373 53.0581 45.9393 51.1498 45.9333C50.0475 45.9294 49.5865 45.4887 49.5865 44.3772C49.5787 34.6495 49.5807 24.9198 49.5865 15.1921C49.5865 14.0885 50.0088 13.6479 51.0724 13.64C53.0774 13.6241 55.0825 13.6241 57.0876 13.64C58.1589 13.6479 58.5987 14.1302 58.5987 15.2616C58.6025 20.0887 58.5987 24.9158 58.5987 29.743ZM52.134 16.2421C52.134 25.3108 52.134 34.3121 52.134 43.3332C53.4571 43.3332 54.7261 43.3332 56.0357 43.3332C56.0357 34.2843 56.0357 25.283 56.0357 16.2421C54.7222 16.2421 53.4513 16.2421 52.134 16.2421Z" fill="white"/>
<path id="Vector_3" d="M26.839 32.3967C26.839 28.4588 26.837 24.5209 26.839 20.5849C26.839 19.2352 27.1935 18.876 28.5147 18.874C30.4481 18.87 32.3815 18.8661 34.3149 18.876C35.4076 18.8819 35.8376 19.3325 35.8376 20.4678C35.8396 28.4171 35.8396 36.3664 35.8376 44.3157C35.8376 45.4689 35.3804 45.9333 34.2491 45.9373C32.2924 45.9433 30.3338 45.9433 28.3772 45.9373C27.2826 45.9333 26.8429 45.4868 26.8409 44.3614C26.8351 40.3698 26.839 36.3843 26.839 32.3967ZM29.3419 43.3808C30.4539 43.3808 31.4904 43.3372 32.521 43.3967C33.1991 43.4344 33.3657 43.2022 33.3618 42.5274C33.3385 35.767 33.3482 29.0086 33.3482 22.2482C33.3482 21.9862 33.3482 21.7242 33.3482 21.4662C31.9456 21.4662 30.6535 21.4662 29.34 21.4662C29.3419 28.7684 29.3419 36.0191 29.3419 43.3808Z" fill="white"/>
<path id="Vector_4" d="M51.3126 7.76687C50.6442 7.70534 50.1386 7.67557 49.6368 7.60809C48.984 7.52274 48.5152 6.98286 48.519 6.35962C48.5229 5.70661 49.0402 5.08535 49.7124 5.1052C51.4017 5.15284 53.0929 5.24215 54.7784 5.37712C55.4835 5.4327 55.902 6.08968 55.7819 6.83003C55.5242 8.41393 55.2511 9.99585 54.9566 11.5738C54.8055 12.3777 54.2166 12.7905 53.492 12.6694C52.7907 12.5543 52.4168 11.9648 52.5156 11.1193C52.5544 10.7838 52.6086 10.4504 52.6764 9.97005C51.1925 11.3694 49.8073 12.6714 48.426 13.9774C46.9169 15.4065 45.4116 16.8396 43.9025 18.2687C43.0152 19.1083 42.6162 19.138 41.6088 18.4453C38.4994 16.3096 35.3901 14.1739 32.2789 12.0383C32.0619 11.8894 31.8372 11.7505 31.5892 11.5877C29.2528 14.6999 26.9417 17.7804 24.6305 20.8609C23.4236 22.4706 22.2186 24.0843 21.0039 25.686C20.5913 26.2299 20.0527 26.4661 19.4095 26.1386C18.8419 25.8508 18.625 25.3347 18.7606 24.7115C18.8148 24.4594 18.9775 24.2172 19.1364 24.0068C22.8308 19.0825 26.5252 14.1541 30.2273 9.23169C30.8201 8.4437 31.4206 8.3782 32.3021 8.98358C35.5335 11.1987 38.7707 13.4058 41.9846 15.6487C42.4612 15.9801 42.7208 15.9424 43.1315 15.5455C45.5434 13.2212 47.9882 10.9307 50.4214 8.62829C50.683 8.38217 50.9406 8.12811 51.3126 7.76687Z" fill="white"/>
<path id="Vector_5" d="M47.1901 35.2489C47.1901 38.246 47.1939 41.2412 47.1901 44.2383C47.1881 45.5126 46.7794 45.9333 45.5511 45.9353C43.6177 45.9393 41.6843 45.9413 39.7529 45.9333C38.6641 45.9294 38.1953 45.4609 38.1934 44.3594C38.1895 38.2183 38.1895 32.0772 38.1934 25.9361C38.1934 24.8742 38.6622 24.4057 39.7064 24.4038C41.7114 24.3978 43.7185 24.3978 45.7235 24.4038C46.7425 24.4077 47.1842 24.8444 47.1881 25.8864C47.1959 29.0086 47.1901 32.1288 47.1901 35.2489ZM40.6808 26.9602C40.6808 27.3016 40.6808 27.5696 40.6808 27.8375C40.6808 31.053 40.6808 34.2684 40.6808 37.4839C40.6808 39.2405 40.6711 40.997 40.6944 42.7516C40.6982 42.962 40.8862 43.3451 40.9985 43.3491C42.219 43.3927 43.4434 43.3769 44.66 43.3769C44.66 37.8471 44.66 32.4186 44.66 26.9622C43.3407 26.9602 42.0679 26.9602 40.6808 26.9602Z" fill="white"/>
<path id="Vector_6" d="M15.4304 38.7423C15.4304 36.9579 15.4265 35.1755 15.4323 33.3911C15.4362 32.1982 15.8895 31.7358 17.0654 31.7318C18.9988 31.7258 20.9322 31.7239 22.8676 31.7318C24.0145 31.7358 24.4445 32.1724 24.4484 33.3534C24.4561 37.0194 24.4581 40.6854 24.4484 44.3514C24.4445 45.4768 23.9912 45.9294 22.9063 45.9333C20.9245 45.9393 18.9427 45.9413 16.9608 45.9333C15.9321 45.9294 15.4459 45.4411 15.4381 44.3891C15.4226 42.5075 15.4304 40.6259 15.4304 38.7423ZM21.9106 34.3875C20.5584 34.3875 19.272 34.3875 18.0108 34.3875C18.0108 37.4084 18.0108 40.3599 18.0108 43.3372C19.3398 43.3372 20.6068 43.3372 21.9106 43.3372C21.9106 40.3381 21.9106 37.3826 21.9106 34.3875Z" fill="white"/>
</g>
</g>
<defs>
<clipPath id="clip0_9_56">
<rect width="74" height="65.3132" fill="white" transform="translate(0 0.657104)"/>
</clipPath>
</defs>
</svg>
