<?xml version="1.0" encoding="utf-8"?>
<!-- Generator: Adobe Illustrator 24.1.3, SVG Export Plug-In . SVG Version: 6.00 Build 0)  -->
<svg version="1.1" id="Layer_1" xmlns="http://www.w3.org/2000/svg" xmlns:xlink="http://www.w3.org/1999/xlink" x="0px" y="0px"
	 viewBox="0 0 60 68.6" style="enable-background:new 0 0 60 68.6;" xml:space="preserve">
<style type="text/css">
	.st0{fill:#FFFFFF;}
</style>
<g>
	<path class="st0" d="M48.7,20.5c1.1,0,2.1,0,3.2,0c1.1,0,2.1,0.3,2.9,1c1.2,0.9,2.4,1.8,3.6,2.7c1,0.7,1.5,1.7,1.6,2.8
		c0,2.4,0.1,4.8-0.1,7.2c-0.2,3.9-2.1,7-4.9,9.5c-1.7,1.6-3.6,2.7-5.7,3.6c-0.4,0.2-0.6,0.4-0.6,0.9c0,2.4,0,4.9,0,7.3
		c0,1.2-0.4,2.2-1.3,3.1c-2.8,2.8-5.6,5.7-8.4,8.6c-0.9,0.9-1.9,1.3-3.2,1.3c-10.6,0-21.1,0-31.7,0c-2.5,0-4.1-1.5-4.1-4
		C0,44.4,0,24.2,0,4c0-2.7,2.1-4,4.1-4c13.5,0.1,27.1,0,40.6,0c2.6,0,4,1.5,4,4c0,5.2,0,10.4,0,15.6C48.7,19.9,48.7,20.2,48.7,20.5z
		 M46.3,20.5c0-0.3,0-0.6,0-0.8c0-5.2,0-10.3,0-15.5c0-1.3-0.4-1.7-1.7-1.7c-13.4,0-26.9,0-40.3,0c-1.3,0-1.7,0.4-1.7,1.7
		c0,20.1,0,40.2,0,60.3c0,1.4,0.4,1.7,1.7,1.7c9.9,0,19.9,0,29.8,0c0.3,0,0.5,0,0.8,0c0-2.6,0-5.2,0-7.7c0-2.3,1.5-3.9,3.9-3.9
		c2,0,3.9,0,5.9,0c0.5,0,1,0,1.5,0c0-2.3,0-4.6,0-6.9c-2.4-1-4.6-2.3-6.4-4c-2.9-2.7-4.7-6-4.8-10.1c0-2.1,0-4.2,0-6.3
		c0-1.3,0.5-2.3,1.6-3.1c1.2-0.9,2.4-1.8,3.6-2.6c0.9-0.7,1.9-1,3-1C44.2,20.5,45.2,20.5,46.3,20.5z M47.5,23c-1.4,0-2.9,0-4.3,0
		c-0.5,0-1.1,0.2-1.5,0.4c-1.2,0.8-2.4,1.7-3.6,2.6c-0.5,0.3-0.7,0.8-0.7,1.4c0,1.9,0,3.9,0,5.8c0,1.8,0.4,3.5,1.3,5
		c1.9,3.4,4.9,5.6,8.4,7c0.2,0.1,0.6,0,0.8-0.1c1.5-0.8,3-1.5,4.3-2.5c3.1-2.3,5.1-5.4,5.1-9.4c0-2,0-4,0-6c0-0.4-0.3-1-0.7-1.3
		c-1.1-0.9-2.2-1.7-3.4-2.5c-0.5-0.3-1.1-0.5-1.7-0.6C50.3,22.9,48.9,23,47.5,23z M45.6,57.1c-0.4,0-0.6-0.1-0.8-0.1
		c-2,0-3.9,0-5.9,0c-1.2,0-1.6,0.4-1.6,1.6c0,2,0,4,0,6c0,0.2,0,0.4,0.1,0.6c0-0.1-0.1-0.1-0.1-0.2C40,62.4,42.7,59.8,45.6,57.1z"/>
	<path class="st0" d="M20.7,39.7c-3.7,0-7.5,0-11.2,0c-1.1,0-1.7,0.8-1.3,1.7C8.4,42,9,42.1,9.6,42.1c7.1,0,14.3,0,21.4,0
		c0.3,0,0.7,0,1,0c0.7-0.1,1.1-0.6,1.1-1.2c0-0.6-0.5-1.1-1.1-1.2c-0.2,0-0.4,0-0.6,0C27.9,39.7,24.3,39.7,20.7,39.7z M19,48.7
		c3.2,0,6.5,0,9.7,0c0.8,0,1.4-0.5,1.4-1.2c0-0.7-0.5-1.2-1.4-1.2c-6.5,0-12.9,0-19.4,0c-1,0-1.5,0.8-1.2,1.7
		c0.2,0.6,0.8,0.8,1.4,0.8C12.7,48.7,15.8,48.7,19,48.7z M24.3,13.5c-3.2,0-6.4,0-9.6,0c-0.8,0-1.4,0.5-1.4,1.2
		c0,0.7,0.5,1.2,1.3,1.2c6.5,0,12.9,0,19.4,0c0.4,0,0.9-0.3,1.2-0.7c0.5-0.8-0.2-1.7-1.3-1.7C30.8,13.5,27.5,13.5,24.3,13.5z
		 M19.1,28.9c3.2,0,6.4,0,9.6,0c0.9,0,1.5-0.6,1.4-1.4c-0.1-0.7-0.6-1-1.4-1c-4.6,0-9.2,0-13.9,0c-1.8,0-3.6,0-5.4,0
		c-0.8,0-1.3,0.5-1.3,1.2c0,0.8,0.5,1.2,1.4,1.2C12.7,28.9,15.9,28.9,19.1,28.9z M15.5,52.8c-2,0-3.9,0-5.9,0c-1,0-1.6,0.4-1.6,1.3
		c0,0.8,0.5,1.2,1.5,1.2c3.9,0,7.9,0,11.8,0c1,0,1.5-0.5,1.5-1.2c0-0.7-0.6-1.2-1.5-1.2C19.4,52.8,17.5,52.8,15.5,52.8z M24.5,33.1
		c-1.4,0-2.8,0-4.2,0c-0.9,0-1.4,0.5-1.4,1.2c0,0.7,0.6,1.2,1.4,1.2c2.8,0,5.7,0,8.5,0c0.8,0,1.4-0.5,1.4-1.2c0-0.7-0.6-1.2-1.4-1.2
		C27.3,33.1,25.9,33.1,24.5,33.1z M12.1,35.5c0.9,0,1.8,0,2.7,0c0.9,0,1.4-0.5,1.4-1.2c0-0.7-0.5-1.2-1.4-1.2c-1.8,0-3.6,0-5.4,0
		c-0.8,0-1.3,0.5-1.4,1.2c0,0.7,0.5,1.2,1.3,1.2C10.3,35.5,11.2,35.5,12.1,35.5z"/>
	<path class="st0" d="M45.6,35.9c-1-0.8-1.9-1.7-2.9-2.5c-0.6-0.5-1.4-0.5-1.8,0.1c-0.5,0.6-0.4,1.2,0.2,1.8c1.2,1,2.3,2.1,3.5,3.1
		c0.6,0.5,1.2,0.5,1.9,0c2.4-2.1,4.9-4.2,7.3-6.3c0.6-0.6,0.7-1.3,0.2-1.8c-0.5-0.5-1.2-0.6-1.8,0c-0.6,0.5-1.2,1-1.7,1.5
		C48.9,33.1,47.3,34.5,45.6,35.9z"/>
	<path class="st0" d="M20.7,39.7c3.6,0,7.2,0,10.8,0c0.2,0,0.4,0,0.6,0c0.7,0.1,1.1,0.6,1.1,1.2c0,0.6-0.5,1.2-1.1,1.2
		c-0.3,0-0.7,0-1,0c-7.1,0-14.3,0-21.4,0c-0.7,0-1.2-0.1-1.5-0.8c-0.4-0.9,0.3-1.7,1.3-1.7C13.2,39.6,16.9,39.7,20.7,39.7z"/>
	<path class="st0" d="M19,48.7c-3.1,0-6.3,0-9.4,0c-0.6,0-1.2-0.2-1.4-0.8c-0.3-0.8,0.3-1.7,1.2-1.7c6.5,0,12.9,0,19.4,0
		c0.8,0,1.4,0.5,1.4,1.2c0,0.7-0.5,1.2-1.4,1.2C25.4,48.7,22.2,48.7,19,48.7z"/>
	<path class="st0" d="M24.3,13.5c3.2,0,6.4,0,9.7,0c1.1,0,1.8,0.9,1.3,1.7c-0.2,0.3-0.8,0.7-1.2,0.7c-6.5,0-12.9,0-19.4,0
		c-0.8,0-1.4-0.5-1.3-1.2c0-0.7,0.6-1.2,1.4-1.2C17.9,13.5,21.1,13.5,24.3,13.5z"/>
	<path class="st0" d="M19.1,28.9c-3.2,0-6.4,0-9.6,0c-0.9,0-1.4-0.4-1.4-1.2c0-0.8,0.5-1.2,1.3-1.2c1.8,0,3.6,0,5.4,0
		c4.6,0,9.2,0,13.9,0c0.9,0,1.3,0.4,1.4,1c0.1,0.8-0.5,1.4-1.4,1.4C25.5,28.9,22.3,28.9,19.1,28.9z"/>
	<path class="st0" d="M15.5,52.8c1.9,0,3.9,0,5.8,0c0.9,0,1.5,0.5,1.5,1.2c0,0.8-0.6,1.2-1.5,1.2c-3.9,0-7.9,0-11.8,0
		c-1,0-1.5-0.4-1.5-1.2c0-0.8,0.5-1.3,1.6-1.3C11.6,52.8,13.6,52.8,15.5,52.8z"/>
	<path class="st0" d="M24.5,33.1c1.4,0,2.8,0,4.2,0c0.9,0,1.4,0.5,1.4,1.2c0,0.7-0.6,1.2-1.4,1.2c-2.8,0-5.7,0-8.5,0
		c-0.8,0-1.4-0.5-1.4-1.2c0-0.7,0.5-1.2,1.4-1.2C21.7,33.1,23.1,33.1,24.5,33.1z"/>
	<path class="st0" d="M12.1,35.5c-0.9,0-1.8,0-2.7,0c-0.8,0-1.3-0.5-1.3-1.2c0-0.7,0.5-1.2,1.4-1.2c1.8,0,3.6,0,5.4,0
		c0.9,0,1.4,0.5,1.4,1.2c0,0.8-0.5,1.2-1.4,1.2C13.9,35.5,13,35.5,12.1,35.5z"/>
	<path class="st0" d="M45.6,35.9c1.6-1.4,3.2-2.8,4.8-4.2c0.6-0.5,1.1-1,1.7-1.5c0.6-0.5,1.4-0.5,1.8,0c0.5,0.6,0.4,1.2-0.2,1.8
		c-2.4,2.1-4.8,4.2-7.3,6.3c-0.6,0.5-1.2,0.5-1.9,0c-1.2-1-2.4-2-3.5-3.1c-0.6-0.6-0.7-1.3-0.2-1.8c0.5-0.6,1.2-0.6,1.8-0.1
		C43.7,34.2,44.6,35.1,45.6,35.9z"/>
</g>
</svg>
