<svg width="84" height="67" viewBox="0 0 84 67" fill="none" xmlns="http://www.w3.org/2000/svg">
<g id="Frame" clip-path="url(#clip0_9_46)">
<g id="Group">
<path id="Vector" d="M84 52.9145C83.5793 53.5513 82.9856 53.7924 82.2473 53.715C82.1115 53.7017 81.9734 53.7128 81.8376 53.7128C79.8549 53.7128 79.8439 53.7105 79.2327 55.6299C79.1691 55.8289 79.2436 56.1628 79.3816 56.3198C79.868 56.877 80.4289 57.3701 80.9262 57.9185C81.5155 58.5642 81.5243 59.1148 80.9218 59.7383C79.6248 61.0828 78.3103 62.4117 76.9826 63.7229C76.3495 64.3465 75.7579 64.3399 75.116 63.7097C74.4916 63.095 73.9154 62.4316 73.3458 61.8213C72.5921 62.1176 71.9436 62.3321 71.339 62.635C71.1396 62.7345 70.9512 63.0596 70.9358 63.294C70.8833 64.0082 70.9358 64.7291 70.9096 65.4477C70.8745 66.4074 70.3071 66.9801 69.3497 66.9889C67.5203 67.0066 65.6887 67.0066 63.8594 66.9889C62.9545 66.9801 62.4944 66.5268 62.4484 65.6224C62.4112 64.906 62.4156 64.1851 62.4419 63.4687C62.4594 63.0176 62.3016 62.7942 61.8722 62.6151C60.1283 61.8832 60.1371 61.8655 58.7963 63.2542C57.5256 64.5721 57.1334 64.5765 55.8452 63.2984C54.7344 62.195 53.6149 61.1004 52.5107 59.9904C51.711 59.1855 51.722 58.6172 52.5194 57.8057C52.6158 57.7084 52.7144 57.6133 52.8108 57.516C54.2896 56.0434 54.3028 56.0367 53.4484 54.1815C53.3541 53.9781 53.0321 53.7769 52.802 53.7614C52.0418 53.7083 51.2728 53.757 50.5082 53.7349C49.6976 53.7105 49.2441 53.2595 49.2375 52.4369C49.22 50.5043 49.22 48.5695 49.2375 46.6368C49.2463 45.7811 49.7085 45.3366 50.5761 45.3123C51.3407 45.2924 52.1097 45.3477 52.8678 45.2836C53.1044 45.2637 53.4067 45.0138 53.525 44.7861C53.8164 44.231 54.0202 43.6274 54.3378 42.8512C53.7616 42.3183 53.0978 41.7456 52.48 41.1265C51.7044 40.3481 51.722 39.802 52.5085 39.0126C53.7529 37.7698 55.0017 36.5338 56.2592 35.3043C57.0326 34.5481 57.5672 34.5525 58.3778 35.3043C58.9803 35.8638 59.5653 36.4387 60.148 36.9959C60.836 36.7107 61.502 36.4696 62.1308 36.1512C62.3126 36.0606 62.4791 35.7576 62.4922 35.5409C62.5383 34.798 62.4944 34.0506 62.5163 33.3054C62.5383 32.5315 62.972 32.0516 63.7345 32.0406C65.6734 32.014 67.6145 32.014 69.5534 32.0384C70.375 32.0494 70.8197 32.5514 70.846 33.4292C70.8679 34.1744 70.8175 34.924 70.8723 35.6648C70.8898 35.8947 71.1045 36.2154 71.3105 36.3082C73.1158 37.122 73.1201 37.1087 74.5705 35.678C74.7458 35.5033 74.9166 35.3242 75.0985 35.1584C75.7054 34.61 76.2553 34.5768 76.8337 35.1451C78.1854 36.4741 79.5175 37.8229 80.8342 39.185C81.3885 39.7577 81.3731 40.3503 80.8561 40.9496C80.6764 41.1574 80.4749 41.3454 80.2821 41.54C78.996 42.838 79.0289 42.8247 79.6686 44.5362C79.8921 45.1332 80.1813 45.3632 80.7969 45.2902C81.2285 45.2394 81.6733 45.3145 82.1071 45.2725C82.852 45.1996 83.4917 45.3764 84.0022 45.9492C84 48.2709 84 50.5927 84 52.9145ZM54.8965 40.0297C55.396 40.472 55.9306 40.9031 56.417 41.383C57.2692 42.2299 57.2605 42.4952 56.7456 43.5566C56.3272 44.419 55.9525 45.3101 55.6589 46.2211C55.3303 47.2361 55.0433 47.5302 53.9895 47.5479C53.2928 47.5589 52.5961 47.5501 51.8972 47.5501C51.8972 48.7729 51.8972 49.863 51.8972 51.0416C52.7035 51.0416 53.4637 51.0482 54.2217 51.0394C54.9513 51.0305 55.3676 51.3976 55.6195 52.0764C56.0095 53.129 56.4192 54.1771 56.8836 55.1987C57.1838 55.8621 57.1882 56.4127 56.6295 56.9124C56.0423 57.4364 55.4552 57.9605 54.9973 58.3696C55.9262 59.3337 56.6974 60.1319 57.6548 61.1226C58.1346 60.5543 58.6341 59.9329 59.1665 59.3381C59.6595 58.7875 60.2094 58.7941 60.8644 59.117C61.8394 59.5968 62.845 60.0258 63.8659 60.3906C64.6481 60.6715 65.0271 61.1203 64.9833 61.9761C64.9416 62.8186 64.9745 63.6655 64.9745 64.4902C66.1554 64.4902 67.2092 64.4902 68.3397 64.4902C68.3397 63.6964 68.3462 62.9557 68.3375 62.2149C68.3309 61.452 68.6771 61.0164 69.4022 60.7555C70.4999 60.3597 71.5778 59.8953 72.6338 59.3956C73.2932 59.0838 73.8234 59.1214 74.3405 59.641C74.8794 60.185 75.4425 60.7046 75.8587 61.1027C76.6913 60.2712 77.4734 59.4885 78.3037 58.6593C77.8546 58.2236 77.3507 57.7173 76.8271 57.233C76.2093 56.6603 76.1611 56.0832 76.562 55.3181C77.0571 54.3761 77.4537 53.3744 77.802 52.3661C78.0715 51.5833 78.514 51.1544 79.3422 51.1588C80.0652 51.1632 80.7882 51.1588 81.509 51.1588C81.509 49.9271 81.509 48.8392 81.509 47.6695C80.7487 47.6695 80.0433 47.6562 79.3378 47.6717C78.4965 47.6916 78.0693 47.2494 77.7998 46.4732C77.4602 45.4914 77.0506 44.5273 76.6036 43.5898C76.1786 42.6987 76.2005 42.2144 76.8797 41.509C77.3836 40.985 77.8962 40.4697 78.4045 39.9523C77.5545 39.0944 76.7876 38.3227 76.0011 37.531C75.3964 38.1015 74.8005 38.6698 74.198 39.2293C73.7533 39.6405 73.2845 39.7356 72.7017 39.4614C71.6172 38.9529 70.513 38.4796 69.3979 38.0418C68.7516 37.7875 68.4251 37.3807 68.4361 36.6797C68.447 35.9146 68.4383 35.1496 68.4383 34.3646C67.2399 34.3646 66.1379 34.3646 64.9745 34.3646C64.9745 35.1296 64.946 35.8461 64.9811 36.5559C65.0227 37.3718 64.6612 37.8141 63.9097 38.0883C62.8647 38.4708 61.8328 38.9064 60.8338 39.3973C60.1721 39.7201 59.6551 39.687 59.1402 39.1497C58.5794 38.5637 57.9856 38.0131 57.3985 37.4382C56.5572 38.3116 55.797 39.0988 54.8965 40.0297Z" fill="white"/>
<path id="Vector_2" d="M67.7459 21.6234C69.0714 20.2746 70.1909 19.0695 71.3915 17.955C71.7224 17.6476 72.327 17.4199 72.7565 17.484C73.7161 17.6277 73.9439 18.7687 73.1968 19.5493C71.7728 21.0397 70.318 22.4991 68.8764 23.9739C68.4339 24.425 68.0067 24.8916 67.5532 25.3316C66.9748 25.8911 66.2123 25.8977 65.6581 25.3338C63.7892 23.4322 61.9292 21.5239 60.0735 19.6068C59.4207 18.9324 59.4009 18.2823 59.9749 17.7339C60.5051 17.2275 61.1405 17.2762 61.7693 17.913C62.8998 19.0562 64.0171 20.2127 65.279 21.5084C65.3009 21.0109 65.3228 20.7456 65.3228 20.4824C65.325 15.8123 65.3272 11.14 65.3228 6.46992C65.3207 3.91153 63.8988 2.47645 61.3618 2.47645C50.9771 2.47424 40.5902 2.47424 30.2055 2.47645C27.5545 2.47645 26.1063 3.94691 26.1042 6.6247C26.102 9.08137 26.1042 11.5402 26.1042 13.9748C27.434 14.3021 28.7485 14.5298 29.9995 14.9499C36.7583 17.2209 41.1094 24.0137 40.6033 31.1958C40.3908 34.203 39.4641 36.8632 37.5624 39.154C34.6507 42.661 33.9321 46.8424 33.8138 51.225C33.8116 51.329 33.8423 51.4329 33.8664 51.6009C35.3737 51.5368 36.8219 51.6651 37.7223 53.0825C38.5965 54.4578 38.5023 55.8443 37.6084 57.1975C38.384 58.3982 38.6096 59.6608 37.9129 60.9544C37.3214 62.0534 36.3684 62.6526 35.1196 62.6858C34.0833 62.7145 33.0448 62.6924 32.197 62.6924C31.4805 63.7184 30.9766 64.7776 30.1726 65.4896C29.4321 66.1463 28.4046 66.6947 27.4428 66.823C25.8369 67.0397 24.1674 67.0308 22.555 66.8473C20.4561 66.6063 19.0496 65.2685 18.3134 63.285C18.1272 62.7853 17.8928 62.6681 17.4283 62.688C16.747 62.7167 16.0612 62.6659 15.3799 62.7013C13.9558 62.7742 12.7727 62.3276 12.0454 61.0429C11.3092 59.7449 11.4363 58.4513 12.2929 57.2418C10.7024 53.8608 11.9796 51.8287 16.0086 51.5678C15.9188 50.3206 15.8619 49.0669 15.7282 47.822C15.3842 44.5892 14.2844 41.6482 12.2119 39.1407C5.5385 31.0675 9.85669 16.7521 21.9897 14.3308C22.5199 14.2247 23.0567 14.165 23.6482 14.0743C23.6482 11.6132 23.7599 9.17645 23.6219 6.75738C23.4006 2.81698 26.4262 -0.0310734 30.326 -0.000116279C40.6011 0.0816989 50.8785 0.0264184 61.1558 0.0286296C65.2462 0.0286296 67.7438 2.55606 67.7459 6.68662C67.7481 11.2749 67.7459 15.8632 67.7459 20.4515C67.7459 20.7522 67.7459 21.0551 67.7459 21.6234ZM31.371 51.57C31.4214 50.9685 31.4849 50.4467 31.5024 49.9226C31.6514 45.2348 32.9528 40.976 35.9543 37.3076C38.3774 34.3446 38.7038 30.8752 37.9918 27.2819C36.6598 20.5687 30.3325 15.5691 22.8091 16.73C16.4205 17.714 10.5709 23.8634 11.754 32.2903C12.076 34.579 13.2241 36.4165 14.5692 38.1722C16.7974 41.0755 17.9059 44.399 18.2368 48.021C18.3441 49.1973 18.4296 50.3737 18.5238 51.5589C20.2655 51.5589 21.9481 51.5589 23.6285 51.5589C23.6613 51.4351 23.6986 51.3577 23.6986 51.2803C23.7052 48.074 23.7183 44.87 23.6876 41.6637C23.6854 41.4072 23.4423 41.0623 23.2122 40.9163C22.1058 40.2065 20.9622 39.5608 19.8427 38.8731C19.0934 38.4132 18.8568 37.7454 19.1964 37.1506C19.5535 36.5226 20.2918 36.37 21.0476 36.8012C22.1409 37.4226 23.2407 38.0395 24.3011 38.7139C24.7918 39.0257 25.1599 38.9992 25.6397 38.7007C26.7088 38.0373 27.8086 37.4226 28.915 36.8233C29.213 36.6619 29.6402 36.4718 29.8987 36.5757C30.2778 36.7283 30.6984 37.0776 30.8452 37.4469C31.0708 38.013 30.7488 38.5194 30.2274 38.8333C29.2196 39.4392 28.2271 40.0783 27.1799 40.6112C26.4569 40.9804 26.194 41.4315 26.2137 42.2718C26.2772 45.0624 26.2378 47.8529 26.2378 50.6435C26.2378 50.9376 26.2378 51.2317 26.2378 51.5656C27.9905 51.57 29.6468 51.57 31.371 51.57ZM24.9583 54.0576C21.6808 54.0576 18.4011 54.0642 15.1235 54.051C14.5189 54.0488 14.0697 54.2345 14.0347 54.8846C13.9996 55.5192 14.4137 55.8222 15.0074 55.8819C15.5223 55.9327 16.0371 56.0101 16.552 56.0101C22.1803 56.019 27.8086 56.019 33.4348 56.0101C33.8949 56.0101 34.355 55.9327 34.8172 55.8973C35.4679 55.8443 35.9674 55.5745 35.9149 54.8448C35.8623 54.1239 35.3102 54.0488 34.7099 54.051C31.4608 54.0642 28.2096 54.0576 24.9583 54.0576ZM24.9759 60.2048C28.1154 60.2048 31.2549 60.2048 34.3944 60.2048C34.6398 60.2048 34.8917 60.2225 35.1283 60.1783C35.6563 60.0788 36.0266 59.7006 35.8929 59.1987C35.8053 58.8736 35.3693 58.6039 35.0363 58.4049C34.8523 58.2943 34.5565 58.3761 34.3111 58.3761C28.0869 58.3761 21.8626 58.3761 15.6384 58.3761C15.3645 58.3761 15.0381 58.2877 14.8321 58.4093C14.5189 58.5928 14.1004 58.909 14.0785 59.1943C14.0566 59.4928 14.4027 59.8842 14.6832 60.1186C14.8541 60.2623 15.2068 60.2026 15.4763 60.2026C18.6421 60.207 21.8079 60.2048 24.9759 60.2048ZM20.7256 62.7322C21.3631 63.871 22.1825 64.4857 23.3349 64.5277C24.5048 64.5697 25.6769 64.5653 26.8491 64.5277C27.9752 64.4924 28.8909 63.787 29.2524 62.7322C26.4503 62.7322 23.6613 62.7322 20.7256 62.7322Z" fill="white"/>
<path id="Vector_3" d="M45.0573 23.691C44.7375 23.3637 44.2423 23.0829 44.1481 22.7004C44.0517 22.309 44.2073 21.6036 44.4987 21.4068C45.7431 20.5665 47.0576 19.8236 48.3918 19.1337C48.9177 18.8617 49.4719 19.0894 49.8159 19.6246C50.1423 20.1331 50.1402 20.7545 49.6801 21.0508C48.3086 21.9397 46.8626 22.7136 45.4429 23.5252C45.3772 23.5627 45.2808 23.5428 45.1997 23.5495C45.1515 23.5959 45.1034 23.6423 45.0573 23.691Z" fill="white"/>
<path id="Vector_4" d="M1.11732 18.8794C2.79771 19.786 4.44963 20.4472 5.72252 21.7098C5.9438 21.9287 5.84959 22.6761 5.66118 23.0586C5.41361 23.5606 4.83522 23.7198 4.30722 23.4323C3.03652 22.7424 1.77458 22.0304 0.541122 21.2764C0.0109321 20.9557 -0.129283 20.3432 0.118285 19.817C0.286981 19.4543 0.733918 19.2243 1.11732 18.8794Z" fill="white"/>
<path id="Vector_5" d="M13.097 14.8991C12.9064 14.7399 12.4682 14.521 12.2469 14.1628C11.5524 13.0461 10.928 11.8852 10.2993 10.7287C9.92681 10.0433 10.0977 9.38653 10.6936 9.01504C11.2961 8.63913 11.9446 8.80276 12.3565 9.49709C13.0576 10.6757 13.7455 11.8631 14.3918 13.0726C14.8431 13.9129 14.2384 14.9212 13.097 14.8991Z" fill="white"/>
<path id="Vector_6" d="M36.8262 14.8948C35.7593 14.9257 35.1152 13.9926 35.5293 13.1523C36.1602 11.872 36.8679 10.6271 37.6106 9.41094C37.9633 8.8316 38.5636 8.68787 39.1902 9.02398C39.7489 9.3247 39.9942 10.0765 39.67 10.6735C39.0018 11.903 38.3007 13.1192 37.5602 14.3066C37.3783 14.5985 36.9949 14.7643 36.8262 14.8948Z" fill="white"/>
<path id="Vector_7" d="M66.6023 57.0384C62.5207 57.0429 59.1841 53.6752 59.1337 49.4982C59.0833 45.3632 62.5273 41.8496 66.6067 41.8695C70.7124 41.8916 74.1433 45.3544 74.1367 49.4716C74.1301 53.6376 70.7496 57.034 66.6023 57.0384ZM66.6593 44.4212C63.8287 44.3969 61.6137 46.5993 61.5787 49.4694C61.5436 52.3219 63.7476 54.6149 66.5519 54.6415C69.3957 54.668 71.6829 52.4015 71.7027 49.538C71.7202 46.7209 69.4746 44.4455 66.6593 44.4212Z" fill="white"/>
<path id="Vector_8" d="M26.5161 19.5958C26.6804 19.5958 26.8447 19.5847 27.0068 19.598C27.7451 19.6599 28.2468 20.1906 28.2271 20.8849C28.2096 21.5438 27.7407 22.048 27.0134 22.079C25.1008 22.163 23.2889 22.5942 21.6677 23.6556C18.6903 25.6058 17.1107 28.3898 16.9222 31.972C16.8719 32.9471 16.4249 33.5309 15.6976 33.4955C14.9768 33.4601 14.5189 32.8741 14.5167 31.983C14.5057 25.4909 20.1034 19.7129 26.5161 19.5958Z" fill="white"/>
</g>
</g>
<defs>
<clipPath id="clip0_9_46">
<rect width="84" height="67" fill="white"/>
</clipPath>
</defs>
</svg>
